# xmcd CD database file
#
# Track frame offsets:
#	183
#	15558
#	29258
#	42333
#	57408
#	69633
#	83108
#	99033
#	111833
#	124958
#	140858
#	157658
#	174258
#	183220
#	201333
#	218508
#	231233
#	243933
#	262383
#	280458
#	300633
#
# Disc length: 4286 seconds
#
# Revision: 1
# Processed by: cddbd v1.5.2PL0 Copyright (c) Steve Scherf et al.
# Submitted via: CDex 1.51
#
DISCID=2810bc15
DTITLE=Fats Waller - 21 Top Tracks [CD Jazz)
DYEAR=1989
DGENRE=Jazz
TTITLE0=Fats Waller Stomp
TTITLE1=Sugar
TTITLE2=Numb Fumblin'
TTITLE3=Dallas Blues
TTITLE4=Alligator Grawl
TTITLE5=Viper's Drag
TTITLE6=I'm Gonna sit right down...
TTITLE7=The Joint is Jumpin'
TTITLE8=Deep River
TTITLE9=Theme and Hold my hand
TTITLE10=Honkeysuckle Rose
TTITLE11=Yacht Club Swing
TTITLE12=St. Louis Blues
TTITLE13=Flat Foot Floongee
TTITLE14=After you've gone and theme
TTITLE15=The Sheik of Araby
TTITLE16=I'm Crazy 'Bout my Baby
TTITLE17=Tes for Two
TTITLE18=Ain't Misbeahavin'
TTITLE19=Solitude
TTITLE20=Bouncing on a v-disk
EXTD=YEAR: 1989
EXTT0=
EXTT1=
EXTT2=
EXTT3=
EXTT4=
EXTT5=
EXTT6=
EXTT7=
EXTT8=
EXTT9=
EXTT10=
EXTT11=
EXTT12=
EXTT13=
EXTT14=
EXTT15=
EXTT16=
EXTT17=
EXTT18=
EXTT19=
EXTT20=
PLAYORDER=
